<svg width="146" height="48" viewBox="0 0 146 48" fill="none" xmlns="http://www.w3.org/2000/svg">
<g clip-path="url(#clip0_2289_1333)">
<path d="M30.6852 15.3837C30.7241 23.7037 24.1696 30.643 15.994 30.9116C13.2002 31.0025 10.5714 30.3269 8.29016 29.0765V34.8622C8.29016 36.9541 6.62436 38.6509 4.56639 38.6509C2.50841 38.6509 0.844551 36.9541 0.844551 34.8622V18.7714C1.87936 19.4884 3.12968 19.9072 4.47514 19.9072C5.82059 19.9072 7.00101 19.5121 8.01835 18.8286C8.10184 19.0202 8.19309 19.2099 8.29016 19.3936C9.66862 22.001 12.377 23.7748 15.4911 23.7748C19.9585 23.7748 23.591 20.1244 23.6609 15.5951C23.7328 11.0005 20.0362 7.16247 15.5203 7.14667C13.8273 7.14074 12.2508 7.65827 10.9442 8.55111C10.9442 8.4721 10.9481 8.39506 10.9481 8.31605C10.9481 5.72642 9.47447 3.48444 7.33107 2.41778C9.68998 0.886914 12.4896 0 15.4911 0C23.857 0 30.6464 6.88197 30.6852 15.3837Z" fill="#FC981B"/>
<path d="M4.49261 3.9447C1.8716 3.9447 0 6.13334 0 8.51359C0 9.29186 0.199973 10.0879 0.636808 10.8366L4.11596 16.802C4.28681 17.0943 4.70035 17.0943 4.8712 16.802L8.35034 10.8366C10.1268 7.79458 7.97176 3.9447 4.49261 3.9447ZM4.49455 9.85878C3.65582 9.85878 2.9763 9.16742 2.9763 8.31408C2.9763 7.46075 3.65582 6.77137 4.49455 6.77137C5.33327 6.77137 6.01085 7.46273 6.01085 8.31408C6.01085 9.16544 5.33133 9.85878 4.49455 9.85878Z" fill="#BE2908"/>
<path d="M142.882 19.0064C136.819 19.838 143.014 30.5778 137.995 33.1852C136.112 34.1057 132.338 34.1946 131.095 32.4148C128.111 29.0647 132.598 18.9649 126.853 19.0064C125.278 19.0854 124.069 20.4682 124.069 22.0721V28.9936C123.737 38.4296 132.687 41.5546 140.08 37.8153C140.059 40.7427 137.694 42.2637 135.157 42.3407C133.107 42.4217 130.373 42.3803 128.511 41.4262C127.037 40.7783 125.585 41.6849 125.187 43.119C124.079 45.7442 126.892 46.9136 128.973 47.279C134.741 48.6657 142.865 47.9901 145.167 41.4874C146.666 38.3664 145.717 25.5506 145.971 21.9931C145.971 20.2943 144.571 18.9215 142.884 19.0064H142.882Z" fill="#FC981B"/>
<path d="M119.289 34.0089L113.69 28.5551L118.361 24.3022C119.306 23.443 119.611 22.161 119.159 20.956C118.707 19.7511 117.639 19.0025 116.371 19.0025C115.627 19.0025 114.915 19.283 114.365 19.7906L107.234 26.3743V14.2301C107.234 12.5807 105.916 11.2395 104.295 11.2395C102.674 11.2395 101.355 12.5807 101.355 14.2301V36.316C101.355 37.9654 102.674 39.3067 104.295 39.3067C105.916 39.3067 107.234 37.9654 107.234 36.316V34.4257L109.201 32.636L115.093 38.4395C115.66 38.9985 116.408 39.3067 117.198 39.3067C118.46 39.3067 119.536 38.5659 120.005 37.3768C120.475 36.1877 120.201 34.8938 119.291 34.0069L119.289 34.0089Z" fill="#FC981B"/>
<path d="M96.7677 34.0089L91.1684 28.5551L95.8397 24.3022C96.7852 23.443 97.09 22.161 96.6376 20.956C96.1853 19.7511 95.1174 19.0025 93.8497 19.0025C93.1061 19.0025 92.3935 19.283 91.8441 19.7906L84.713 26.3743V14.2301C84.713 12.5807 83.3947 11.2395 81.7736 11.2395C80.1524 11.2395 78.8342 12.5807 78.8342 14.2301V36.316C78.8342 37.9654 80.1524 39.3067 81.7736 39.3067C83.3947 39.3067 84.713 37.9654 84.713 36.316V34.4257L86.6797 32.636L92.5721 38.4395C93.1391 38.9985 93.8865 39.3067 94.6767 39.3067C95.9387 39.3067 97.0143 38.5659 97.4841 37.3768C97.954 36.1877 97.6802 34.8938 96.7696 34.0069L96.7677 34.0089Z" fill="#FC981B"/>
<path d="M75.6715 34.5146C74.9512 33.3215 73.3766 32.8533 72.0079 33.4242C71.6856 33.5585 71.3478 33.683 71.0061 33.7936L70.9828 33.8015C70.0217 34.1116 68.9792 34.2696 67.8842 34.2696C66.8882 34.2696 65.9718 34.1373 65.168 33.8785C64.3778 33.6099 63.6944 33.2464 63.1411 32.8C62.6033 32.3477 62.1781 31.8104 61.8791 31.2039C61.5899 30.5857 61.4423 29.9042 61.4423 29.1773C61.4423 28.4504 61.5802 27.7649 61.852 27.1565C62.1315 26.5383 62.5412 25.997 63.0673 25.5486L63.077 25.5407C63.6187 25.0785 64.2885 24.7151 65.0748 24.4583C65.8708 24.1877 66.7892 24.0514 67.8046 24.0514C68.6918 24.0514 69.5771 24.158 70.4372 24.3694L70.4547 24.3733C70.8003 24.4583 71.1614 24.5649 71.5264 24.6894C72.8874 25.1536 74.3319 24.6578 75.0405 23.4864L75.2249 23.1802C75.5919 22.5718 75.6773 21.8212 75.454 21.1733C75.2482 20.5748 74.8075 20.1244 74.2173 19.9072C73.5514 19.6504 72.8253 19.4311 72.0642 19.2533C71.3128 19.0657 70.5188 18.9195 69.7033 18.8188C68.8879 18.72 68.0667 18.6686 67.261 18.6686C65.3971 18.6686 63.71 18.9353 62.2403 19.4647C60.7725 19.996 59.5066 20.7447 58.4777 21.6889C57.4545 22.6272 56.6624 23.757 56.1207 25.0489L56.1168 25.0607C55.5907 26.3368 55.3227 27.7333 55.3227 29.2109C55.3227 30.6884 55.6023 32.1027 56.1537 33.3748C56.7167 34.6449 57.5322 35.7649 58.5806 36.7052C59.6193 37.6257 60.9006 38.3565 62.3898 38.876C63.8672 39.3916 65.5544 39.6543 67.4046 39.6543C68.3113 39.6543 69.1986 39.5872 70.0353 39.4528C70.8838 39.3304 71.7031 39.1565 72.468 38.9353C73.2427 38.7141 73.9804 38.4474 74.6677 38.1432C75.291 37.8568 75.7453 37.3314 75.9472 36.6657C76.1627 35.9526 76.0617 35.1704 75.6695 34.5205L75.6715 34.5146Z" fill="#FC981B"/>
<path d="M50.5952 21.5842C48.7799 19.6444 46.0017 18.6627 42.3381 18.6627C41.5265 18.6627 40.6761 18.7082 39.8122 18.7951C38.9502 18.882 38.0765 19.0104 37.2203 19.1743C36.3583 19.3284 35.5021 19.5161 34.6731 19.7353C34.543 19.7689 34.4148 19.8044 34.2886 19.84C33.6382 20.0237 33.1102 20.4603 32.8034 21.0726C32.485 21.7047 32.4442 22.4533 32.6889 23.1289L32.7452 23.283C33.2072 24.5511 34.6304 25.2306 35.9855 24.8316C36.632 24.644 37.2941 24.484 37.9542 24.3575C38.6143 24.2311 39.2627 24.1363 39.8801 24.0731C40.4956 24.0099 41.0664 23.9783 41.5751 23.9783C42.4895 23.9783 43.3127 24.0731 44.0213 24.2627L44.0407 24.2686C44.7455 24.4543 45.3493 24.721 45.8444 25.0667C46.3201 25.3827 46.6928 25.7659 46.9549 26.2064L46.9588 26.2104C46.9821 26.2499 47.0093 26.3052 47.0015 26.3526C46.9976 26.3862 46.9763 26.4217 46.9413 26.4573C46.8443 26.5561 46.6443 26.6351 46.4152 26.5857C45.6367 26.4217 44.8601 26.2874 44.1068 26.1867C42.8137 26.0109 41.5615 25.922 40.383 25.922C38.7813 25.922 37.3523 26.08 36.135 26.3921C34.9041 26.6983 33.8557 27.1526 33.017 27.7412C32.155 28.3338 31.4968 29.0588 31.0619 29.8983C30.627 30.7378 30.4057 31.6761 30.4057 32.6874C30.4057 33.6988 30.6134 34.6193 31.0269 35.4825C31.4482 36.3259 32.0715 37.0706 32.883 37.6968C33.681 38.3111 34.6769 38.7951 35.8457 39.1388C37.0087 39.4765 38.3638 39.6484 39.8763 39.6484C40.7713 39.6484 41.6294 39.5872 42.4254 39.4647C43.2331 39.3541 44 39.1961 44.7009 38.9946C45.4037 38.7931 46.0618 38.5541 46.6559 38.2874C46.8714 38.1906 47.0869 38.0919 47.2927 37.9891C47.3432 37.9635 47.384 37.9812 47.4034 37.9951C47.4248 38.0089 47.4481 38.0326 47.4481 38.0622C47.4481 38.7496 47.9975 39.3106 48.6751 39.3106H50.3894C52.0106 39.3106 53.3288 37.9694 53.3288 36.32V30.3901C53.3288 26.481 52.4125 23.518 50.603 21.5882L50.5952 21.5842ZM37.2222 31.5042C37.529 31.3304 37.9484 31.1882 38.4706 31.0815C39.0142 30.9709 39.7151 30.9156 40.5538 30.9156C40.9654 30.9156 41.4527 30.9314 42.0022 30.963C42.5575 30.9946 43.1535 31.0519 43.7825 31.1388C44.4096 31.2119 45.0756 31.3185 45.759 31.4548L45.7881 31.4607C46.3084 31.5635 46.8384 31.6879 47.3665 31.8262C47.4092 31.838 47.4403 31.8795 47.4403 31.9289C47.4403 31.9625 47.4286 31.9802 47.4228 31.9862C47.1316 32.237 46.7782 32.4879 46.3744 32.7289C45.8657 33.0331 45.2872 33.3077 44.6543 33.5407C44.0194 33.7778 43.3205 33.9694 42.5788 34.1156C41.843 34.2598 41.0722 34.3309 40.284 34.3309C39.5579 34.3309 38.9327 34.2716 38.4337 34.1551C37.9542 34.0306 37.5581 33.8746 37.265 33.6928C36.999 33.519 36.8068 33.3333 36.698 33.1437C36.5874 32.9402 36.533 32.7388 36.533 32.5254C36.533 32.3358 36.5815 32.1541 36.6825 31.9724C36.7757 31.8044 36.9524 31.6484 37.2222 31.5042Z" fill="#FC981B"/>
</g>
<defs>
<clipPath id="clip0_2289_1333">
<rect width="146" height="48" fill="white"/>
</clipPath>
</defs>
</svg>
