<svg width="16" height="16" viewBox="0 0 16 16" fill="none" xmlns="http://www.w3.org/2000/svg">
<rect width="16" height="16" fill="white"/>
<path d="M13.2499 6.65581C13.2631 9.46131 11.0267 11.8004 8.23802 11.8911C7.28514 11.9221 6.3877 11.6942 5.60955 11.2725V13.2229C5.60955 13.9282 5.04089 14.5 4.33942 14.5C3.63799 14.5 3.06934 13.9282 3.06934 13.2229V7.79791C3.42239 8.03966 3.84895 8.18084 4.30799 8.18084C4.75442 8.18084 5.1697 8.04766 5.5168 7.81722C5.54527 7.88181 5.57642 7.94575 5.60952 8.00769C6.07983 8.88681 7.00383 9.48491 8.06627 9.48491C9.59045 9.48491 10.8296 8.25406 10.8538 6.72662C10.8784 5.17781 9.61708 3.88334 8.07652 3.87775C7.49902 3.87566 6.96142 4.05044 6.51564 4.35128C6.51633 4.32462 6.51699 4.29866 6.51699 4.272C6.51699 3.39887 6.01424 2.64293 5.28299 2.28328C6.08711 1.76779 7.04224 1.46875 8.06627 1.46875C10.9207 1.46875 13.2365 3.78887 13.2499 6.65581Z" fill="#FC981B"/>
<path d="M4.31397 2.79883C3.41978 2.79883 2.78125 3.53677 2.78125 4.33933C2.78125 4.60173 2.84947 4.87014 2.99851 5.12255L4.18547 7.13392C4.24375 7.23248 4.38484 7.23248 4.44312 7.13392L5.63013 5.12255C6.23619 4.09689 5.50094 2.79883 4.31397 2.79883ZM4.31462 4.79289C4.0285 4.79289 3.79666 4.55977 3.79666 4.27205C3.79666 3.98502 4.0285 3.75189 4.31462 3.75189C4.60012 3.75189 4.83194 3.98502 4.83194 4.27205C4.83194 4.55977 4.60012 4.79289 4.31462 4.79289Z" fill="#BE2908"/>
</svg>
